# xmcd CD database file
#
# Track frame offsets:
#	150
#	21892
#	37207
#	56910
#	75135
#	88660
#	111282
#	128037
#	143415
#	159235
#	177177
#	192155
#
# Disc length: 2797 seconds
#
# Revision: 2
# Processed by: cddbd v1.5.2PL0 Copyright (c) Steve Scherf et al.
# Submitted via: jetAudio 7
#
DISCID=930aeb0c
DTITLE=Kurt Darren - (018) Kurt Darren
DYEAR=1900
DGENRE=CD No 018
TTITLE0=Look Before You Leap
TTITLE1=Nothing Could Be Further From The Truth
TTITLE2=Since I Found You
TTITLE3=No Bridge I Wouldn't Cross
TTITLE4=She Knows It
TTITLE5=Every Road I Take
TTITLE6=Somebody Elses Dream
TTITLE7=So Help Me Girl
TTITLE8=This Time Around
TTITLE9=Tonight Can Last Forever
TTITLE10=Right Woman At The Wrong Time
TTITLE11=I'll Never Fall In Love Again
EXTD=
EXTT0=
EXTT1=
EXTT2=
EXTT3=
EXTT4=
EXTT5=
EXTT6=
EXTT7=
EXTT8=
EXTT9=
EXTT10=
EXTT11=
PLAYORDER=
